<svg xmlns="http://www.w3.org/2000/svg" xmlns:xlink="http://www.w3.org/1999/xlink" xmlns:serif="http://www.serif.com/" version="1.1" xml:space="preserve" style="fill-rule:evenodd;clip-rule:evenodd;stroke-linejoin:round;stroke-miterlimit:2;" viewBox="3358.98 1243.5 5015.37 4476.2"><g id="Logo"><path d="M7110.706,1274.769c-3.224,78.527 -56.017,934.886 -57.478,936.889c-21.111,28.94 -233.484,-200.35 -262.559,-174.09c-12.004,10.842 -225.194,338.724 -487.527,728.186c-278.678,413.728 -281.09,451.716 -310.176,421.595c-28.365,-29.375 -342.138,-398.232 -356.256,-399.554c-21.312,-1.996 -12.885,13.08 -246.991,370.041c-1.285,1.959 -214.6,335.021 -233.259,364.154c-4.241,6.622 -17.223,11.977 -24.185,-0.861c-184.804,-340.768 -205.737,-343.308 -184.722,-379.356c12.852,-22.046 624.101,-992.914 632.275,-994.785c28.753,-6.58 354.424,401.031 377.299,402.989c13.091,1.121 12.783,-4.14 269.302,-389.338c19.019,-28.56 234.523,-352.168 235.516,-358.471c5.347,-33.938 -273.081,-152.357 -274.758,-172.03c-2.057,-24.131 13.147,-15.757 435.468,-193.472c420.494,-176.946 488.205,-213.325 489.177,-184.107c0.247,7.409 -1.375,14.802 -1.128,22.211Z" style="fill:#1db5c0;"/><path d="M5679.605,2996.671c208.43,247.083 254.242,255.429 216.24,314.605c-32.858,51.165 -34.405,49.662 -413.872,637.526c-99.977,154.883 -151.514,257.754 -189.062,258.923c-29.895,0.931 -349.776,10.896 -373.836,-5.046c-11.062,-7.33 -990.373,-1795.582 -990.265,-1804.727c0.268,-22.735 14.586,-11.067 413.262,-14.154c43.278,-0.335 50.9,39.407 93.927,115.696c214.821,380.892 680.972,1251.078 696.214,1251.873c19.726,1.029 137.62,-206.714 322.42,-481.81c8.783,-13.075 7.902,-12.133 107.664,-164.848c61.174,-93.644 73.804,-147.615 117.308,-108.04Z" style="fill:#236ebf;"/><path d="M7826.743,2387.206l-250.906,371.029l-984.31,-2.633c0,0 -85.68,121.307 -230.439,359.147c69.505,0.598 856.313,-1.112 856.313,-1.112l-250.148,367.817c0,0 -835.697,-6.067 -890.729,-6.013c-100.672,159.079 -396.588,615.256 -396.588,615.256c0,0 1167.688,1.908 1179.496,-11.047c18.332,-20.111 12.804,-23.078 68.33,-102.658c14.554,-20.859 6.026,-27.656 -19.305,-27.774c-361.345,-1.675 -779.569,-0.751 -950.969,-2.701c136.881,-213.443 222.544,-339.92 222.544,-339.92c0,0 52.375,3.653 113.135,2.551c-55.217,91.526 -149.963,227.688 -130.501,228.359c53.966,1.862 965.857,7.777 965.857,7.777l-228.347,348.8c0,0 -1421.843,13.542 -1423.342,13.082c223.425,-352.341 476.558,-754.909 526.243,-842.483c692.246,4.833 913.403,-3.188 913.403,-3.188l92.771,-140.842l-855.05,-4.028l371.139,-564.023l1006.423,9.582l103.377,-157.397c0,0 -997.781,0.227 -1002.067,-2.827c85.482,-103.343 92.189,-118.022 92.189,-118.022l1101.482,3.269Z" style="fill:#1aa2c0;"/><path d="M7052.378,1572.569c-40.609,532.414 -20.381,583.872 -53.445,554.046c-13.121,-11.836 -15.072,-8.947 -173.705,-136.44c-50.119,-40.28 -55.257,-2.695 -128.361,106.345c-683.409,1019.355 -679.543,1026.392 -693.17,1027.051c-26.235,1.268 -348.05,-412.061 -378.633,-405.316c-16.848,3.716 -7.606,14.824 -360.886,554.345c-92.067,140.602 -106.778,199.006 -136.48,147.585c-128.436,-222.358 -154.463,-235.663 -116.349,-297.703c26.047,-42.397 545.693,-863.817 550.017,-870.457c39.246,-60.264 53.232,-13.912 102.256,38.964c290.076,312.868 289.597,348.801 314.03,322.358c6.271,-6.787 461.728,-696.041 501.771,-756.638c41.618,-62.981 54.652,-77.783 24.453,-95.7c-180.767,-107.246 -263.83,-117.254 -189.482,-150.049c56.062,-24.73 401.487,-177.101 707.134,-294.28c27.388,-10.5 41.079,-24.389 43.269,4.724c1.509,20.061 0.777,19.699 -12.42,251.166Z" style="fill:#75f7f3;"/><path d="M7016.901,1607.601c-32.978,423.773 -10.411,487.698 -54.001,452.137c-170.084,-138.756 -176.111,-141.429 -190.782,-130.195c-18.056,13.825 -756.598,1137.325 -769.008,1143.165c-24.194,11.384 -357.159,-426.85 -385.7,-406.614c-10.974,7.781 -447.696,700.225 -462.301,716.688c-12.261,13.82 -15.653,-2.263 -122.53,-195.747c-19.104,-34.585 2.105,-34.779 187.677,-333.404c112.839,-181.583 360.804,-573.945 363.68,-577.702c20.592,-26.894 22.84,7.151 294.38,304.309c63.452,69.438 85.485,109.246 108.166,76.718c19.934,-28.587 555.266,-836.986 571.864,-863.255c30.519,-48.302 -13.503,-40.524 -195.533,-145.58c-36.293,-20.946 13.484,-23.65 558.375,-255.464c7.898,-3.36 93.421,-39.745 101.15,-35.787c17.859,9.144 12.513,14.968 -5.438,250.732Z" style="fill:#1db7c1;"/><path d="M5539.222,3272.699c101.415,-150.419 99.06,-151.998 109.454,-163.85c14.682,-16.742 22.301,-5.129 143.642,131.023c9.556,13.999 42.538,25.541 12.286,72.138c-8.653,13.329 -18.227,26.047 -26.825,39.411c-39.869,61.965 -496.241,771.255 -498.976,774.164c-15.113,16.073 -306.605,5.659 -307.794,5.241c-21.561,-7.583 -917.855,-1656.256 -916.788,-1664.51c1.783,-13.796 260.085,-11.5 277.331,-0.899c8.987,5.525 375.002,685.377 487.938,885.711c296.066,525.183 297.331,566.026 324.02,535.924c17.115,-19.304 364.331,-565.03 395.713,-614.354Z" style="fill:#236cbf;"/><path d="M6981.681,1492.769c-32.236,442.132 -3.104,525.512 -65.558,474.798c-137.615,-111.746 -143.916,-115.197 -152.874,-103.457c-51.089,66.958 -557.657,830.866 -605.746,903.385c-149.554,225.529 -155.482,245.05 -176.561,225.721c-11.389,-10.443 -285.366,-325.997 -310.066,-354.444c-34.693,-39.957 -48.316,-66.114 -75.986,-20.552c-19.624,32.313 -422.103,657.537 -425.487,663.736c-24.462,44.806 -35.494,-2.241 -64.799,-55.984c-21.224,-38.922 -39.982,-43.611 -2.097,-103.541c489.255,-773.948 488.714,-778.964 499.617,-778.865c28.541,0.26 350.226,416.501 378.101,397.75c1.141,-0.767 0.455,-0.12 548.685,-825.646c82.024,-123.512 118.212,-156.029 80.04,-179.365c-71.407,-43.654 -168.184,-83.446 -154.327,-102.712c0.534,-0.742 414.225,-173.565 466.549,-194.596c25.214,-10.134 40.898,-18.912 44.386,-19.128c25.012,-1.55 13.466,12.62 16.124,72.9Z" style="fill:#0c3f52;"/><path d="M7753.306,2430.263c-57.464,90.6 -123.127,186.452 -199.125,295.586l-977.933,-7.194c0,0 -185.635,285.327 -277.492,425.083c139.126,1.358 837.163,2.841 837.163,2.841l-195.972,298.983l-882.951,-6.95l-448.735,689.548l1256.605,5.126l144.893,-216.822c0,0 -836.948,-5.57 -979.452,-7.912c58.956,-101.344 160.86,-268.368 160.86,-268.368l44.423,1.306c0,0 -130.635,217.688 -138.958,231.994c211.133,3.219 815.304,4.292 968.727,7.363c9.269,0.186 -145.065,238.546 -180.499,281.743c-191.636,2.014 -1338.324,-1.345 -1338.324,-1.345l483.77,-756.47l876.536,1.382l148.165,-214.215l-824.443,-3.26c0,0 310.591,-493.628 321.023,-504.359c129.021,0.226 984.194,6.046 984.194,6.046l148.099,-220.77l-967.74,-3.389l31.828,-39.699l1005.337,3.752Z" style="fill:#64f0f3;"/><path d="M5728.068,3234.697c31.519,40.322 46.049,44.588 18.149,87.717c-21.136,32.673 -133.281,206.031 -265.54,407.547c-226.661,345.351 -220.391,361.396 -256.431,361.603c-226.789,1.303 -232.719,1.32 -247.379,-23.159c-111.496,-186.185 -296.462,-536.775 -321.343,-583.935c-103.777,-196.702 -530.697,-959.866 -527.313,-971.135c2.865,-9.54 160.287,-31.725 188.927,11.639c48.827,73.929 31.375,83.676 532.34,971.133c87.36,154.758 259.092,481.85 271.268,484.084c28.037,5.144 232.257,-342.001 451.811,-673.681c74.931,-113.198 86.689,-149.626 108.21,-127.439c4.067,4.193 3.069,4.92 47.301,55.627Z" style="fill:#0e2a5b;"/><path d="M5792.318,3239.871l21.789,-20.746c3.952,4.487 43.455,49.341 43.069,61.09c-0.665,20.285 -403.035,624.87 -546.429,855.873c-27.681,44.594 -106.209,29.683 -120.846,29.627c-210.981,-0.798 -232.573,4.966 -250.699,-15.729c-27.225,-31.084 -379.816,-684.716 -412.142,-744.64c-100.642,-186.57 -516.54,-942.09 -525.326,-962.364c-14.07,-32.468 335.932,-14.318 341.079,-12.184c23.46,9.731 477.946,868.465 696.134,1251.579c63.501,111.501 83.263,180.048 112.947,134.026c339.415,-526.236 340.162,-525.236 368.962,-571.403c6.122,9.233 12.244,18.465 18.366,27.698c-31.382,49.324 -378.598,595.05 -395.713,614.354c-26.689,30.102 -27.954,-10.741 -324.02,-535.924c-112.936,-200.334 -478.951,-880.186 -487.938,-885.711c-17.245,-10.601 -275.548,-12.898 -277.331,0.899c-1.067,8.254 895.227,1656.927 916.788,1664.51c1.188,0.418 292.68,10.832 307.794,-5.241c2.735,-2.909 459.107,-712.2 498.976,-774.164c8.599,-13.364 18.172,-26.082 26.825,-39.411c30.252,-46.597 -2.73,-58.139 -12.286,-72.138Z" style="fill:#4ee0f5;"/><path d="M5814.106,3219.126l-21.789,20.746c-121.341,-136.152 -128.96,-147.765 -143.642,-131.023c-10.394,11.852 -8.039,13.431 -109.454,163.85c-6.122,-9.233 -12.244,-18.465 -18.366,-27.698c16.981,-27.882 112.014,-172.28 118.877,-180.539c18.941,-22.792 32.648,-12.993 174.374,154.664Z" style="fill:#5aecf3;"/></g><g id="Text"><g transform="matrix(1200,0,0,1200,8372.266667,5578.419359)"/><text x="3361.067px" y="5578.419px" style="font-family:'Blackpast-DEMO-Regular', 'Blackpast DEMO';font-size:1200px;fill:url(#_Linear1);stroke:#1b3e8c;stroke-width:4.17px;">Vir<tspan x="5275.067px 6052.667px " y="5578.419px 5578.419px ">tu</tspan>Ex</text></g><defs><linearGradient id="_Linear1" x1="0" y1="0" x2="1" y2="0" gradientUnits="userSpaceOnUse" gradientTransform="matrix(3501.50438,-29.686088,29.686088,3501.50438,3501.90995,5147.168901)"><stop offset="0" style="stop-color:#1b3e8c;stop-opacity:1"/><stop offset="0.38" style="stop-color:#186b9a;stop-opacity:1"/><stop offset="0.83" style="stop-color:#0fd9bd;stop-opacity:1"/><stop offset="1" style="stop-color:#0fd9bd;stop-opacity:1"/></linearGradient></defs></svg>